<svg width="556" height="345" viewBox="0 0 556 345" fill="none" xmlns="http://www.w3.org/2000/svg">
<rect width="556" height="345" fill="#27272A"/>
<path d="M422.648 342.144C421.992 342.144 421.424 342.036 420.944 341.82C420.464 341.604 420.072 341.312 419.768 340.944L420.476 340.308C420.756 340.612 421.072 340.848 421.424 341.016C421.776 341.176 422.192 341.256 422.672 341.256C423.128 341.256 423.496 341.176 423.776 341.016C424.064 340.856 424.208 340.604 424.208 340.26C424.208 340.116 424.18 339.996 424.124 339.9C424.068 339.796 423.992 339.716 423.896 339.66C423.8 339.596 423.688 339.548 423.56 339.516C423.44 339.484 423.312 339.456 423.176 339.432L422.204 339.288C421.972 339.256 421.732 339.212 421.484 339.156C421.236 339.092 421.008 338.996 420.8 338.868C420.6 338.74 420.432 338.572 420.296 338.364C420.168 338.156 420.104 337.888 420.104 337.56C420.104 337.248 420.164 336.976 420.284 336.744C420.412 336.504 420.588 336.304 420.812 336.144C421.044 335.984 421.316 335.864 421.628 335.784C421.948 335.704 422.296 335.664 422.672 335.664C423.24 335.664 423.732 335.752 424.148 335.928C424.564 336.104 424.916 336.344 425.204 336.648L424.52 337.32C424.448 337.232 424.356 337.144 424.244 337.056C424.132 336.96 424 336.876 423.848 336.804C423.696 336.732 423.52 336.672 423.32 336.624C423.12 336.576 422.888 336.552 422.624 336.552C422.168 336.552 421.816 336.632 421.568 336.792C421.328 336.944 421.208 337.168 421.208 337.464C421.208 337.616 421.236 337.74 421.292 337.836C421.348 337.932 421.424 338.012 421.52 338.076C421.616 338.14 421.724 338.188 421.844 338.22C421.972 338.252 422.104 338.28 422.24 338.304L423.212 338.448C423.444 338.48 423.684 338.528 423.932 338.592C424.18 338.656 424.404 338.752 424.604 338.88C424.812 339 424.98 339.164 425.108 339.372C425.244 339.58 425.312 339.848 425.312 340.176C425.312 340.8 425.072 341.284 424.592 341.628C424.12 341.972 423.472 342.144 422.648 342.144ZM429.795 342.144C429.347 342.144 428.947 342.068 428.595 341.916C428.243 341.764 427.943 341.548 427.695 341.268C427.447 340.988 427.255 340.648 427.119 340.248C426.991 339.848 426.927 339.4 426.927 338.904C426.927 338.408 426.991 337.96 427.119 337.56C427.255 337.16 427.447 336.82 427.695 336.54C427.943 336.26 428.243 336.044 428.595 335.892C428.947 335.74 429.347 335.664 429.795 335.664C430.235 335.664 430.631 335.74 430.983 335.892C431.343 336.044 431.647 336.26 431.895 336.54C432.143 336.82 432.331 337.16 432.459 337.56C432.595 337.96 432.663 338.408 432.663 338.904C432.663 339.4 432.595 339.848 432.459 340.248C432.331 340.648 432.143 340.988 431.895 341.268C431.647 341.548 431.343 341.764 430.983 341.916C430.631 342.068 430.235 342.144 429.795 342.144ZM429.795 341.22C430.307 341.22 430.715 341.068 431.019 340.764C431.323 340.452 431.475 339.984 431.475 339.36V338.448C431.475 337.824 431.323 337.36 431.019 337.056C430.715 336.744 430.307 336.588 429.795 336.588C429.283 336.588 428.875 336.744 428.571 337.056C428.267 337.36 428.115 337.824 428.115 338.448V339.36C428.115 339.984 428.267 340.452 428.571 340.764C428.875 341.068 429.283 341.22 429.795 341.22ZM438.371 340.968H438.323C438.259 341.128 438.175 341.28 438.071 341.424C437.975 341.56 437.855 341.684 437.711 341.796C437.575 341.9 437.411 341.984 437.219 342.048C437.027 342.112 436.803 342.144 436.547 342.144C435.907 342.144 435.391 341.94 434.999 341.532C434.615 341.124 434.423 340.544 434.423 339.792V335.808H435.539V339.6C435.539 340.664 435.999 341.196 436.919 341.196C437.103 341.196 437.279 341.176 437.447 341.136C437.623 341.088 437.779 341.016 437.915 340.92C438.051 340.824 438.159 340.704 438.239 340.56C438.327 340.416 438.371 340.248 438.371 340.056V335.808H439.487V342H438.371V340.968ZM441.498 341.076H443.238V336.732H441.498V335.808H444.354V337.404H444.426C444.562 336.9 444.798 336.508 445.134 336.228C445.478 335.948 445.93 335.808 446.49 335.808H447.306V336.9H446.106C445.57 336.9 445.142 337.056 444.822 337.368C444.51 337.672 444.354 338.068 444.354 338.556V341.076H446.694V342H441.498V341.076ZM451.609 342.144C451.153 342.144 450.745 342.068 450.385 341.916C450.033 341.764 449.733 341.548 449.485 341.268C449.245 340.98 449.057 340.64 448.921 340.248C448.793 339.848 448.729 339.4 448.729 338.904C448.729 338.416 448.793 337.972 448.921 337.572C449.057 337.172 449.245 336.832 449.485 336.552C449.733 336.264 450.033 336.044 450.385 335.892C450.745 335.74 451.149 335.664 451.597 335.664C452.213 335.664 452.709 335.796 453.085 336.06C453.469 336.324 453.753 336.672 453.937 337.104L453.061 337.584C452.949 337.28 452.769 337.04 452.521 336.864C452.281 336.688 451.973 336.6 451.597 336.6C451.061 336.6 450.645 336.768 450.349 337.104C450.061 337.432 449.917 337.856 449.917 338.376V339.432C449.917 339.952 450.061 340.38 450.349 340.716C450.645 341.044 451.069 341.208 451.621 341.208C452.021 341.208 452.349 341.116 452.605 340.932C452.861 340.74 453.069 340.484 453.229 340.164L454.033 340.692C453.849 341.116 453.557 341.464 453.157 341.736C452.757 342.008 452.241 342.144 451.609 342.144ZM458.697 342.144C458.241 342.144 457.829 342.068 457.461 341.916C457.093 341.764 456.781 341.548 456.525 341.268C456.277 340.988 456.085 340.652 455.949 340.26C455.813 339.86 455.745 339.412 455.745 338.916C455.745 338.42 455.813 337.972 455.949 337.572C456.093 337.172 456.289 336.832 456.537 336.552C456.793 336.264 457.097 336.044 457.449 335.892C457.801 335.74 458.189 335.664 458.613 335.664C459.037 335.664 459.421 335.74 459.765 335.892C460.109 336.036 460.401 336.244 460.641 336.516C460.889 336.788 461.077 337.112 461.205 337.488C461.341 337.856 461.409 338.264 461.409 338.712V339.18H456.897V339.432C456.897 339.952 457.057 340.38 457.377 340.716C457.697 341.044 458.141 341.208 458.709 341.208C459.117 341.208 459.469 341.12 459.765 340.944C460.061 340.76 460.293 340.508 460.461 340.188L461.217 340.776C461.017 341.176 460.701 341.504 460.269 341.76C459.845 342.016 459.321 342.144 458.697 342.144ZM458.625 336.552C458.369 336.552 458.137 336.596 457.929 336.684C457.721 336.772 457.537 336.896 457.377 337.056C457.225 337.208 457.105 337.392 457.017 337.608C456.937 337.824 456.897 338.06 456.897 338.316V338.412H460.245V338.28C460.245 337.76 460.097 337.344 459.801 337.032C459.505 336.712 459.113 336.552 458.625 336.552ZM465.772 342.12C465.42 342.12 465.172 342.044 465.028 341.892C464.884 341.74 464.812 341.556 464.812 341.34V341.088C464.812 340.872 464.884 340.692 465.028 340.548C465.172 340.396 465.42 340.32 465.772 340.32C466.124 340.32 466.372 340.396 466.516 340.548C466.66 340.692 466.732 340.872 466.732 341.088V341.34C466.732 341.556 466.66 341.74 466.516 341.892C466.372 342.044 466.124 342.12 465.772 342.12ZM465.772 337.5C465.42 337.5 465.172 337.424 465.028 337.272C464.884 337.12 464.812 336.936 464.812 336.72V336.468C464.812 336.252 464.884 336.072 465.028 335.928C465.172 335.776 465.42 335.7 465.772 335.7C466.124 335.7 466.372 335.776 466.516 335.928C466.66 336.072 466.732 336.252 466.732 336.468V336.72C466.732 336.936 466.66 337.12 466.516 337.272C466.372 337.424 466.124 337.5 465.772 337.5ZM481.591 340.968H481.531C481.347 341.352 481.099 341.644 480.787 341.844C480.475 342.044 480.091 342.144 479.635 342.144C478.891 342.144 478.303 341.864 477.871 341.304C477.447 340.744 477.235 339.944 477.235 338.904C477.235 337.864 477.447 337.064 477.871 336.504C478.303 335.944 478.891 335.664 479.635 335.664C480.091 335.664 480.475 335.764 480.787 335.964C481.099 336.164 481.347 336.456 481.531 336.84H481.591V333.12H482.707V342H481.591V340.968ZM480.09 341.196C480.291 341.196 480.479 341.172 480.655 341.124C480.839 341.068 480.999 340.992 481.135 340.896C481.279 340.792 481.391 340.664 481.471 340.512C481.551 340.36 481.591 340.184 481.591 339.984V337.824C481.591 337.624 481.551 337.452 481.471 337.308C481.391 337.156 481.279 337.028 481.135 336.924C480.999 336.82 480.839 336.744 480.655 336.696C480.479 336.64 480.291 336.612 480.09 336.612C479.563 336.612 479.151 336.776 478.855 337.104C478.567 337.424 478.423 337.852 478.423 338.388V339.42C478.423 339.956 478.567 340.388 478.855 340.716C479.151 341.036 479.563 341.196 480.09 341.196ZM487.742 334.548C487.438 334.548 487.226 334.488 487.106 334.368C486.986 334.24 486.926 334.084 486.926 333.9V333.672C486.926 333.488 486.986 333.332 487.106 333.204C487.226 333.076 487.438 333.012 487.742 333.012C488.046 333.012 488.258 333.076 488.378 333.204C488.498 333.332 488.558 333.488 488.558 333.672V333.9C488.558 334.084 488.498 334.24 488.378 334.368C488.258 334.488 488.046 334.548 487.742 334.548ZM485.006 341.076H487.178V336.732H485.006V335.808H488.294V341.076H490.334V342H485.006V341.076ZM494.673 342.144C494.217 342.144 493.805 342.068 493.437 341.916C493.069 341.764 492.757 341.548 492.501 341.268C492.253 340.988 492.061 340.652 491.925 340.26C491.789 339.86 491.721 339.412 491.721 338.916C491.721 338.42 491.789 337.972 491.925 337.572C492.069 337.172 492.265 336.832 492.513 336.552C492.769 336.264 493.073 336.044 493.425 335.892C493.777 335.74 494.165 335.664 494.589 335.664C495.013 335.664 495.397 335.74 495.741 335.892C496.085 336.036 496.377 336.244 496.617 336.516C496.865 336.788 497.053 337.112 497.181 337.488C497.317 337.856 497.385 338.264 497.385 338.712V339.18H492.873V339.432C492.873 339.952 493.033 340.38 493.353 340.716C493.673 341.044 494.117 341.208 494.685 341.208C495.093 341.208 495.445 341.12 495.741 340.944C496.037 340.76 496.269 340.508 496.437 340.188L497.193 340.776C496.993 341.176 496.677 341.504 496.245 341.76C495.821 342.016 495.297 342.144 494.673 342.144ZM494.601 336.552C494.345 336.552 494.113 336.596 493.905 336.684C493.697 336.772 493.513 336.896 493.353 337.056C493.201 337.208 493.081 337.392 492.993 337.608C492.913 337.824 492.873 338.06 492.873 338.316V338.412H496.221V338.28C496.221 337.76 496.073 337.344 495.777 337.032C495.481 336.712 495.089 336.552 494.601 336.552ZM502.084 342C501.58 342 501.208 341.864 500.968 341.592C500.728 341.312 500.608 340.952 500.608 340.512V336.732H498.628V335.808H500.068C500.284 335.808 500.436 335.764 500.524 335.676C500.62 335.588 500.668 335.432 500.668 335.208V333.624H501.724V335.808H504.472V336.732H501.724V341.076H504.472V342H502.084ZM509.172 342.144C508.716 342.144 508.308 342.068 507.948 341.916C507.596 341.764 507.296 341.548 507.048 341.268C506.808 340.98 506.62 340.64 506.484 340.248C506.356 339.848 506.292 339.4 506.292 338.904C506.292 338.416 506.356 337.972 506.484 337.572C506.62 337.172 506.808 336.832 507.048 336.552C507.296 336.264 507.596 336.044 507.948 335.892C508.308 335.74 508.712 335.664 509.16 335.664C509.776 335.664 510.272 335.796 510.648 336.06C511.032 336.324 511.316 336.672 511.5 337.104L510.624 337.584C510.512 337.28 510.332 337.04 510.084 336.864C509.844 336.688 509.536 336.6 509.16 336.6C508.624 336.6 508.208 336.768 507.912 337.104C507.624 337.432 507.48 337.856 507.48 338.376V339.432C507.48 339.952 507.624 340.38 507.912 340.716C508.208 341.044 508.632 341.208 509.184 341.208C509.584 341.208 509.912 341.116 510.168 340.932C510.424 340.74 510.632 340.484 510.792 340.164L511.596 340.692C511.412 341.116 511.12 341.464 510.72 341.736C510.32 342.008 509.804 342.144 509.172 342.144ZM516.139 342.144C515.691 342.144 515.291 342.068 514.939 341.916C514.587 341.764 514.287 341.548 514.039 341.268C513.791 340.988 513.599 340.648 513.463 340.248C513.335 339.848 513.271 339.4 513.271 338.904C513.271 338.408 513.335 337.96 513.463 337.56C513.599 337.16 513.791 336.82 514.039 336.54C514.287 336.26 514.587 336.044 514.939 335.892C515.291 335.74 515.691 335.664 516.139 335.664C516.579 335.664 516.975 335.74 517.327 335.892C517.687 336.044 517.991 336.26 518.239 336.54C518.487 336.82 518.675 337.16 518.803 337.56C518.939 337.96 519.007 338.408 519.007 338.904C519.007 339.4 518.939 339.848 518.803 340.248C518.675 340.648 518.487 340.988 518.239 341.268C517.991 341.548 517.687 341.764 517.327 341.916C516.975 342.068 516.579 342.144 516.139 342.144ZM516.139 341.22C516.651 341.22 517.059 341.068 517.363 340.764C517.667 340.452 517.819 339.984 517.819 339.36V338.448C517.819 337.824 517.667 337.36 517.363 337.056C517.059 336.744 516.651 336.588 516.139 336.588C515.627 336.588 515.219 336.744 514.915 337.056C514.611 337.36 514.459 337.824 514.459 338.448V339.36C514.459 339.984 514.611 340.452 514.915 340.764C515.219 341.068 515.627 341.22 516.139 341.22ZM524.762 340.968H524.702C524.518 341.352 524.27 341.644 523.958 341.844C523.646 342.044 523.262 342.144 522.806 342.144C522.062 342.144 521.474 341.864 521.042 341.304C520.618 340.744 520.406 339.944 520.406 338.904C520.406 337.864 520.618 337.064 521.042 336.504C521.474 335.944 522.062 335.664 522.806 335.664C523.262 335.664 523.646 335.764 523.958 335.964C524.27 336.164 524.518 336.456 524.702 336.84H524.762V333.12H525.878V342H524.762V340.968ZM523.262 341.196C523.462 341.196 523.65 341.172 523.826 341.124C524.01 341.068 524.17 340.992 524.306 340.896C524.45 340.792 524.562 340.664 524.642 340.512C524.722 340.36 524.762 340.184 524.762 339.984V337.824C524.762 337.624 524.722 337.452 524.642 337.308C524.562 337.156 524.45 337.028 524.306 336.924C524.17 336.82 524.01 336.744 523.826 336.696C523.65 336.64 523.462 336.612 523.262 336.612C522.734 336.612 522.322 336.776 522.026 337.104C521.738 337.424 521.594 337.852 521.594 338.388V339.42C521.594 339.956 521.738 340.388 522.026 340.716C522.322 341.036 522.734 341.196 523.262 341.196ZM530.65 342.144C530.194 342.144 529.782 342.068 529.414 341.916C529.046 341.764 528.734 341.548 528.478 341.268C528.23 340.988 528.038 340.652 527.902 340.26C527.766 339.86 527.698 339.412 527.698 338.916C527.698 338.42 527.766 337.972 527.902 337.572C528.046 337.172 528.242 336.832 528.49 336.552C528.746 336.264 529.05 336.044 529.402 335.892C529.754 335.74 530.142 335.664 530.566 335.664C530.99 335.664 531.374 335.74 531.718 335.892C532.062 336.036 532.354 336.244 532.594 336.516C532.842 336.788 533.03 337.112 533.158 337.488C533.294 337.856 533.362 338.264 533.362 338.712V339.18H528.85V339.432C528.85 339.952 529.01 340.38 529.33 340.716C529.65 341.044 530.094 341.208 530.662 341.208C531.07 341.208 531.422 341.12 531.718 340.944C532.014 340.76 532.246 340.508 532.414 340.188L533.17 340.776C532.97 341.176 532.654 341.504 532.222 341.76C531.798 342.016 531.274 342.144 530.65 342.144ZM530.578 336.552C530.322 336.552 530.09 336.596 529.882 336.684C529.674 336.772 529.49 336.896 529.33 337.056C529.178 337.208 529.058 337.392 528.97 337.608C528.89 337.824 528.85 338.06 528.85 338.316V338.412H532.198V338.28C532.198 337.76 532.05 337.344 531.754 337.032C531.458 336.712 531.066 336.552 530.578 336.552ZM537.725 342.12C537.373 342.12 537.125 342.044 536.981 341.892C536.837 341.74 536.765 341.556 536.765 341.34V341.088C536.765 340.872 536.837 340.692 536.981 340.548C537.125 340.396 537.373 340.32 537.725 340.32C538.077 340.32 538.325 340.396 538.469 340.548C538.613 340.692 538.685 340.872 538.685 341.088V341.34C538.685 341.556 538.613 341.74 538.469 341.892C538.325 342.044 538.077 342.12 537.725 342.12ZM545.304 334.548C545 334.548 544.788 334.488 544.668 334.368C544.548 334.24 544.488 334.084 544.488 333.9V333.672C544.488 333.488 544.548 333.332 544.668 333.204C544.788 333.076 545 333.012 545.304 333.012C545.608 333.012 545.82 333.076 545.94 333.204C546.06 333.332 546.12 333.488 546.12 333.672V333.9C546.12 334.084 546.06 334.24 545.94 334.368C545.82 334.488 545.608 334.548 545.304 334.548ZM542.568 341.076H544.74V336.732H542.568V335.808H545.856V341.076H547.896V342H542.568V341.076ZM552.116 342.144C551.668 342.144 551.268 342.068 550.916 341.916C550.564 341.764 550.264 341.548 550.016 341.268C549.768 340.988 549.576 340.648 549.44 340.248C549.312 339.848 549.248 339.4 549.248 338.904C549.248 338.408 549.312 337.96 549.44 337.56C549.576 337.16 549.768 336.82 550.016 336.54C550.264 336.26 550.564 336.044 550.916 335.892C551.268 335.74 551.668 335.664 552.116 335.664C552.556 335.664 552.952 335.74 553.304 335.892C553.664 336.044 553.968 336.26 554.216 336.54C554.464 336.82 554.652 337.16 554.78 337.56C554.916 337.96 554.984 338.408 554.984 338.904C554.984 339.4 554.916 339.848 554.78 340.248C554.652 340.648 554.464 340.988 554.216 341.268C553.968 341.548 553.664 341.764 553.304 341.916C552.952 342.068 552.556 342.144 552.116 342.144ZM552.116 341.22C552.628 341.22 553.036 341.068 553.34 340.764C553.644 340.452 553.796 339.984 553.796 339.36V338.448C553.796 337.824 553.644 337.36 553.34 337.056C553.036 336.744 552.628 336.588 552.116 336.588C551.604 336.588 551.196 336.744 550.892 337.056C550.588 337.36 550.436 337.824 550.436 338.448V339.36C550.436 339.984 550.588 340.452 550.892 340.764C551.196 341.068 551.604 341.22 552.116 341.22Z" fill="white" fill-opacity="0.2"/>
<path d="M219.99 275.062C230.426 282.495 240.181 288.616 248.061 292.775L324.716 249.523C317.441 245.823 307.941 241.419 297.039 236.754C295.701 236.183 294.371 235.616 293.036 235.06C285.936 232.075 279.001 229.309 272.569 226.869C258.736 221.638 247.16 217.928 240.928 216.83C237.693 216.258 236.953 216.556 236.871 216.595L236.807 216.63C234.45 217.918 237.734 223.955 240.863 227.876C241.037 228.092 241.031 228.338 240.852 228.541C240.667 228.747 240.331 228.895 239.919 228.945C239.84 228.953 233.932 229.713 227.166 232.203C224.506 233.178 221.726 234.414 219.108 235.981C215.419 238.177 212.778 240.715 211.091 242.663C209.488 244.503 208.721 245.823 208.708 245.847C208.582 246.06 208.299 246.231 207.932 246.312C207.563 246.398 207.125 246.389 206.74 246.293C199.549 244.48 188.272 242.557 185.723 243.944L185.722 243.944C185.702 243.965 185.319 244.342 186.233 245.903C188.093 249.054 193.921 254.698 201.963 261.315L201.957 261.318C207.188 265.627 213.364 270.349 219.99 275.062Z" fill="#FBB03B"/>
<path d="M292.202 232.744C289.042 231.433 285.748 230.1 282.417 228.779C280.019 227.827 277.599 226.882 275.179 225.962C275.12 225.936 275.052 225.912 274.987 225.889C261.971 220.926 249.229 216.623 241.671 215.293C238.309 214.703 236.136 214.724 234.839 215.357C234.775 215.386 234.722 215.415 234.669 215.443C230.628 217.651 235.422 224.807 237.519 227.608C235.158 228.006 230.46 228.96 225.285 230.881C224.948 231.004 224.604 231.148 224.258 231.285C223.502 231.581 222.744 231.896 221.976 232.237C220.258 232.998 218.537 233.854 216.863 234.85C213.223 237.022 210.579 239.463 208.797 241.442C207.647 242.712 206.85 243.791 206.382 244.481C201.278 243.265 187.872 240.414 183.568 242.766C182.55 243.322 182.404 244.291 183.103 245.733C184.502 248.568 189.566 253.712 196.854 259.904C197.861 260.761 198.909 261.64 200.005 262.533C200.47 262.915 200.95 263.305 201.428 263.694C206.039 267.421 211.272 271.405 216.872 275.416C221.816 278.954 234.906 288.086 246.732 294.253C246.831 294.134 246.916 294.027 247.021 293.906C247.33 293.544 247.691 293.16 248.062 292.775C240.181 288.617 230.426 282.495 219.99 275.062C213.365 270.349 207.189 265.627 201.957 261.318L201.963 261.315C193.921 254.698 188.094 249.054 186.233 245.903C185.309 244.325 185.711 243.956 185.723 243.944C188.272 242.557 199.549 244.48 206.74 246.293C207.125 246.389 207.563 246.398 207.932 246.312C208.299 246.231 208.582 246.06 208.708 245.847C208.722 245.823 209.488 244.504 211.091 242.663C212.778 240.715 215.419 238.177 219.109 235.981C221.726 234.414 224.506 233.178 227.166 232.203C233.932 229.713 239.841 228.953 239.92 228.945C240.331 228.895 240.667 228.747 240.852 228.541C241.031 228.338 241.037 228.093 240.863 227.876C237.734 223.955 234.45 217.918 236.807 216.63L236.872 216.595C236.953 216.557 237.693 216.258 240.928 216.83C247.161 217.928 258.736 221.638 272.569 226.869C279.002 229.309 285.936 232.075 293.037 235.06C294.371 235.616 295.701 236.183 297.04 236.754C307.941 241.419 317.441 245.823 324.716 249.523C325.253 249.113 325.837 248.697 326.462 248.278C318.371 244.164 308.316 239.585 298.766 235.506C296.663 234.606 294.464 233.68 292.202 232.744Z" fill="#100F0D"/>
<path d="M204.994 247.82C204.716 247.019 193.637 246.077 191.294 246.617C188.943 247.164 197.089 253.601 198.369 253.826C199.658 254.049 205.27 248.619 204.994 247.82Z" fill="#FAD3A5"/>
<path d="M254.118 222.335C253.413 221.663 239.872 217.56 239.398 218.927C238.931 220.293 242.51 226.191 244.046 226.229C245.588 226.265 254.824 223.008 254.118 222.335" fill="#FAD3A5"/>
<path d="M232.016 257.232C231.249 257.672 229.824 257.611 228.828 257.096C227.836 256.584 227.647 255.815 228.415 255.376C229.181 254.937 230.609 254.999 231.602 255.512C232.594 256.025 232.777 256.796 232.016 257.232ZM226.74 255.722C225.022 256.704 225.189 258.313 227.117 259.308C229.046 260.303 232.008 260.311 233.732 259.326C235.452 258.339 235.283 256.735 233.355 255.74C231.424 254.743 228.463 254.737 226.74 255.722Z" fill="#100F0D"/>
<path d="M228.415 255.376C227.649 255.815 227.832 256.586 228.825 257.099C229.82 257.614 231.245 257.674 232.011 257.236C232.777 256.797 232.594 256.025 231.601 255.512C230.609 254.999 229.181 254.937 228.415 255.376" fill="white"/>
<path d="M264.268 241.851C265.993 240.864 265.824 239.261 263.891 238.265C263.256 237.936 262.502 237.724 261.721 237.611C261.966 237.679 262.202 237.765 262.418 237.878C263.411 238.39 263.595 239.161 262.833 239.598C262.066 240.037 260.639 239.977 259.646 239.465C258.65 238.951 258.467 238.18 259.234 237.74C259.38 237.657 259.559 237.597 259.748 237.549C258.83 237.629 257.956 237.858 257.288 238.244C255.563 239.23 255.732 240.834 257.665 241.829C259.59 242.827 262.551 242.836 264.268 241.851" fill="#100F0D"/>
<path d="M259.649 239.464C260.642 239.976 262.068 240.036 262.829 239.6C263.596 239.161 263.413 238.389 262.42 237.877C262.203 237.765 261.967 237.678 261.722 237.611C261.052 237.426 260.325 237.404 259.75 237.549C259.561 237.597 259.383 237.656 259.236 237.74C258.469 238.179 258.653 238.95 259.649 239.464" fill="white"/>
<path d="M212.201 243.534C214.045 244.331 215.925 245.099 217.872 245.822C218.834 246.176 219.86 246.537 221.068 246.556C222.281 246.572 223.715 246.121 223.935 245.453C224.05 245.128 223.862 244.808 223.599 244.529C223.163 244.074 222.521 243.693 221.843 243.346C220.69 242.758 219.411 242.253 218.127 241.745C217.107 241.347 216.097 240.948 215.082 240.547C213.925 241.596 212.968 242.625 212.201 243.534" fill="#FAD3A5"/>
<path d="M249.565 249.841C250.757 248.835 249.738 247.541 247.544 247.222C246.139 247.019 245.692 248.183 247.105 248.384C248.537 248.596 247.334 249.769 245.815 249.355C245.614 249.257 245.392 249.172 245.143 249.107C244.049 248.836 242.859 249.571 243.909 250.055C243.986 250.091 244.078 250.118 244.16 250.151L244.155 250.154C244.211 250.167 244.246 250.186 244.294 250.2C244.337 250.218 244.375 250.238 244.422 250.252C245.439 250.76 243.485 252.111 242.727 251.121C242.166 250.392 240.044 250.689 240.607 251.419C241.315 252.346 243.679 253.019 245.325 252.552C246.448 252.232 246.985 251.408 246.858 250.632C247.928 250.616 248.942 250.368 249.565 249.841" fill="#100F0D"/>
<path d="M219.662 237.076C219.284 237.309 218.925 237.546 218.574 237.787C220.739 239.047 222.969 240.265 225.318 241.424C226.191 241.847 227.121 242.278 228.338 242.385C229.541 242.497 231.078 242.167 231.473 241.529C231.672 241.217 231.572 240.889 231.38 240.595C231.057 240.115 230.528 239.69 229.935 239.301C228.934 238.635 227.787 238.038 226.639 237.447C225.31 236.756 223.984 236.068 222.647 235.379C221.646 235.899 220.636 236.463 219.662 237.076" fill="#FAD3A5"/>
<path d="M232.792 236.874C233.575 237.344 234.431 237.817 235.613 237.996C236.798 238.177 238.402 237.933 238.93 237.323C239.187 237.026 239.146 236.699 239.005 236.4C238.787 235.904 238.333 235.458 237.814 235.037C236.945 234.323 235.898 233.673 234.868 233.021C234.078 232.523 233.279 232.027 232.491 231.524C230.877 232.001 229.113 232.583 227.292 233.301C229.038 234.524 230.863 235.724 232.792 236.874" fill="#FAD3A5"/>
<path d="M227.352 262.809C223.874 264.709 223.249 267.451 225.96 268.932C228.669 270.412 233.69 270.071 237.167 268.171C240.645 266.272 241.269 263.529 238.559 262.049C235.849 260.568 230.829 260.91 227.352 262.809Z" fill="#FAD3A5"/>
<path d="M269.155 239.972C265.677 241.872 265.054 244.614 267.764 246.095C270.474 247.575 275.493 247.235 278.971 245.334C282.45 243.434 283.073 240.692 280.363 239.211C277.653 237.731 272.634 238.072 269.155 239.972Z" fill="#FAD3A5"/>
<rect x="3.46418" width="97.0341" height="97.0341" rx="25" transform="matrix(0.866044 -0.499967 0.866044 0.499967 161.464 201.246)" fill="#27272A" stroke="#EF4444" stroke-width="4"/>
<path d="M174.442 214.172L157.481 204.381L115.205 228.787L104.604 222.668L82.2811 166.871L98.9923 157.224L159.352 192.07L171.823 184.87L181.551 190.486L169.08 197.685L186.04 207.477L174.442 214.172ZM115.953 217.124L147.754 198.765L97.6205 169.823L96.997 170.183L115.953 217.124ZM241.862 176.979C236.458 180.099 230.804 182.211 224.901 183.315C218.915 184.37 212.721 184.538 206.319 183.819C199.917 183.099 193.308 181.491 186.49 178.995C179.756 176.451 172.814 173.115 165.664 168.987C158.597 164.908 152.86 160.924 148.454 157.036C144.047 153.053 141.22 149.213 139.973 145.517C138.726 141.821 139.059 138.269 140.971 134.862C142.8 131.406 146.417 128.118 151.821 124.998C157.225 121.879 162.92 119.791 168.906 118.735C174.809 117.631 180.961 117.439 187.363 118.159C193.765 118.879 200.375 120.535 207.192 123.126C214.01 125.622 220.952 128.91 228.019 132.99C235.169 137.118 240.906 141.149 245.229 145.085C249.635 148.973 252.462 152.765 253.709 156.46C254.956 160.156 254.665 163.732 252.836 167.188C250.924 170.595 247.266 173.859 241.862 176.979ZM231.635 171.075C234.961 169.155 237.164 167.164 238.245 165.1C239.326 162.94 239.451 160.756 238.619 158.548C237.705 156.292 235.876 153.988 233.132 151.637C230.471 149.237 227.063 146.837 222.906 144.437L208.19 135.942C204.033 133.542 199.876 131.574 195.719 130.038C191.645 128.454 187.696 127.422 183.871 126.942C179.964 126.414 176.181 126.486 172.523 127.158C168.865 127.734 165.373 128.982 162.047 130.902C158.638 132.87 156.394 134.934 155.313 137.094C154.232 139.157 154.149 141.317 155.063 143.573C155.895 145.781 157.682 148.061 160.426 150.413C163.169 152.765 166.62 155.14 170.777 157.54L185.493 166.036C189.65 168.436 193.765 170.427 197.839 172.011C201.913 173.595 205.904 174.651 209.811 175.179C213.636 175.659 217.377 175.611 221.035 175.035C224.693 174.363 228.227 173.043 231.635 171.075ZM204.199 155.236C201.289 156.916 198.67 157.756 196.342 157.756C194.098 157.708 192.144 157.204 190.481 156.244L187.737 154.66C186.075 153.7 185.202 152.573 185.118 151.277C185.118 149.933 186.573 148.421 189.483 146.741C192.393 145.061 194.971 144.245 197.215 144.293C199.543 144.293 201.539 144.773 203.201 145.733L205.945 147.317C207.608 148.277 208.439 149.429 208.439 150.773C208.522 152.069 207.109 153.556 204.199 155.236ZM323.997 127.834L307.037 118.043L264.76 142.449L254.159 136.33L231.836 80.5334L248.547 70.886L308.907 105.732L321.378 98.5322L331.106 104.148L318.635 111.347L335.595 121.139L323.997 127.834ZM265.508 130.786L297.309 112.427L247.176 83.4852L246.552 83.8451L265.508 130.786Z" fill="white"/>
<path d="M489.458 107V105.452L495.308 99.098H489.656V97.712H497.162V99.26L491.312 105.614H497.342V107H489.458ZM501.529 102.374V100.664H506.857V102.374H501.529ZM514.464 99.692C515.304 99.692 515.928 99.512 516.336 99.152C516.756 98.78 516.966 98.312 516.966 97.748V97.622C516.966 96.986 516.762 96.506 516.354 96.182C515.958 95.858 515.43 95.696 514.77 95.696C514.122 95.696 513.588 95.84 513.168 96.128C512.748 96.416 512.4 96.8 512.124 97.28L510.882 96.29C511.062 96.026 511.272 95.768 511.512 95.516C511.752 95.264 512.028 95.042 512.34 94.85C512.652 94.658 513.012 94.508 513.42 94.4C513.828 94.28 514.29 94.22 514.806 94.22C515.37 94.22 515.892 94.292 516.372 94.436C516.864 94.58 517.284 94.79 517.632 95.066C517.992 95.33 518.274 95.666 518.478 96.074C518.682 96.47 518.784 96.92 518.784 97.424C518.784 98.24 518.544 98.888 518.064 99.368C517.596 99.848 517.02 100.172 516.336 100.34V100.412C516.696 100.484 517.038 100.598 517.362 100.754C517.686 100.91 517.968 101.12 518.208 101.384C518.46 101.648 518.658 101.96 518.802 102.32C518.958 102.668 519.036 103.076 519.036 103.544C519.036 104.084 518.928 104.582 518.712 105.038C518.508 105.482 518.208 105.866 517.812 106.19C517.428 106.514 516.96 106.766 516.408 106.946C515.868 107.126 515.262 107.216 514.59 107.216C514.026 107.216 513.522 107.15 513.078 107.018C512.646 106.898 512.262 106.736 511.926 106.532C511.59 106.328 511.29 106.094 511.026 105.83C510.774 105.566 510.552 105.296 510.36 105.02L511.674 104.03C511.83 104.282 511.998 104.51 512.178 104.714C512.358 104.918 512.562 105.098 512.79 105.254C513.03 105.41 513.294 105.53 513.582 105.614C513.882 105.698 514.224 105.74 514.608 105.74C515.436 105.74 516.078 105.548 516.534 105.164C516.99 104.768 517.218 104.216 517.218 103.508V103.364C517.218 102.668 516.99 102.128 516.534 101.744C516.09 101.36 515.424 101.168 514.536 101.168H513.114V99.692H514.464ZM525.779 107.216C524.999 107.216 524.327 107.072 523.763 106.784C523.199 106.484 522.731 106.058 522.359 105.506C521.987 104.954 521.711 104.276 521.531 103.472C521.363 102.668 521.279 101.75 521.279 100.718C521.279 99.698 521.363 98.786 521.531 97.982C521.711 97.166 521.987 96.482 522.359 95.93C522.731 95.378 523.199 94.958 523.763 94.67C524.327 94.37 524.999 94.22 525.779 94.22C526.559 94.22 527.231 94.37 527.795 94.67C528.359 94.958 528.827 95.378 529.199 95.93C529.571 96.482 529.841 97.166 530.009 97.982C530.189 98.786 530.279 99.698 530.279 100.718C530.279 101.75 530.189 102.668 530.009 103.472C529.841 104.276 529.571 104.954 529.199 105.506C528.827 106.058 528.359 106.484 527.795 106.784C527.231 107.072 526.559 107.216 525.779 107.216ZM525.779 105.74C526.259 105.74 526.667 105.65 527.003 105.47C527.351 105.278 527.633 105.014 527.849 104.678C528.065 104.33 528.221 103.91 528.317 103.418C528.425 102.926 528.479 102.38 528.479 101.78V99.656C528.479 99.056 528.425 98.51 528.317 98.018C528.221 97.526 528.065 97.112 527.849 96.776C527.633 96.428 527.351 96.164 527.003 95.984C526.667 95.792 526.259 95.696 525.779 95.696C525.287 95.696 524.867 95.792 524.519 95.984C524.183 96.164 523.907 96.428 523.691 96.776C523.475 97.112 523.319 97.526 523.223 98.018C523.127 98.51 523.079 99.056 523.079 99.656V101.78C523.079 102.38 523.127 102.926 523.223 103.418C523.319 103.91 523.475 104.33 523.691 104.678C523.907 105.014 524.183 105.278 524.519 105.47C524.867 105.65 525.287 105.74 525.779 105.74ZM525.779 101.78C525.359 101.78 525.065 101.696 524.897 101.528C524.741 101.36 524.663 101.156 524.663 100.916V100.52C524.663 100.28 524.741 100.076 524.897 99.908C525.065 99.74 525.359 99.656 525.779 99.656C526.199 99.656 526.487 99.74 526.643 99.908C526.811 100.076 526.895 100.28 526.895 100.52V100.916C526.895 101.156 526.811 101.36 526.643 101.528C526.487 101.696 526.199 101.78 525.779 101.78Z" fill="white" fill-opacity="0.5"/>
<path d="M489.458 187V185.452L495.308 179.098H489.656V177.712H497.162V179.26L491.312 185.614H497.342V187H489.458ZM501.529 182.374V180.664H506.857V182.374H501.529ZM519.306 187H510.81V185.272L514.95 181.582C515.586 181.03 516.09 180.478 516.462 179.926C516.834 179.362 517.02 178.774 517.02 178.162V177.964C517.02 177.244 516.828 176.692 516.444 176.308C516.06 175.924 515.508 175.732 514.788 175.732C514.044 175.732 513.474 175.924 513.078 176.308C512.682 176.692 512.394 177.19 512.214 177.802L510.666 177.226C510.786 176.842 510.954 176.47 511.17 176.11C511.398 175.75 511.68 175.432 512.016 175.156C512.352 174.868 512.754 174.64 513.222 174.472C513.69 174.304 514.236 174.22 514.86 174.22C515.496 174.22 516.06 174.31 516.552 174.49C517.056 174.67 517.476 174.922 517.812 175.246C518.16 175.57 518.418 175.96 518.586 176.416C518.766 176.86 518.856 177.352 518.856 177.892C518.856 178.372 518.784 178.828 518.64 179.26C518.496 179.68 518.292 180.082 518.028 180.466C517.776 180.85 517.47 181.228 517.11 181.6C516.762 181.96 516.372 182.32 515.94 182.68L512.646 185.506H519.306V187ZM525.779 187.216C524.999 187.216 524.327 187.072 523.763 186.784C523.199 186.484 522.731 186.058 522.359 185.506C521.987 184.954 521.711 184.276 521.531 183.472C521.363 182.668 521.279 181.75 521.279 180.718C521.279 179.698 521.363 178.786 521.531 177.982C521.711 177.166 521.987 176.482 522.359 175.93C522.731 175.378 523.199 174.958 523.763 174.67C524.327 174.37 524.999 174.22 525.779 174.22C526.559 174.22 527.231 174.37 527.795 174.67C528.359 174.958 528.827 175.378 529.199 175.93C529.571 176.482 529.841 177.166 530.009 177.982C530.189 178.786 530.279 179.698 530.279 180.718C530.279 181.75 530.189 182.668 530.009 183.472C529.841 184.276 529.571 184.954 529.199 185.506C528.827 186.058 528.359 186.484 527.795 186.784C527.231 187.072 526.559 187.216 525.779 187.216ZM525.779 185.74C526.259 185.74 526.667 185.65 527.003 185.47C527.351 185.278 527.633 185.014 527.849 184.678C528.065 184.33 528.221 183.91 528.317 183.418C528.425 182.926 528.479 182.38 528.479 181.78V179.656C528.479 179.056 528.425 178.51 528.317 178.018C528.221 177.526 528.065 177.112 527.849 176.776C527.633 176.428 527.351 176.164 527.003 175.984C526.667 175.792 526.259 175.696 525.779 175.696C525.287 175.696 524.867 175.792 524.519 175.984C524.183 176.164 523.907 176.428 523.691 176.776C523.475 177.112 523.319 177.526 523.223 178.018C523.127 178.51 523.079 179.056 523.079 179.656V181.78C523.079 182.38 523.127 182.926 523.223 183.418C523.319 183.91 523.475 184.33 523.691 184.678C523.907 185.014 524.183 185.278 524.519 185.47C524.867 185.65 525.287 185.74 525.779 185.74ZM525.779 181.78C525.359 181.78 525.065 181.696 524.897 181.528C524.741 181.36 524.663 181.156 524.663 180.916V180.52C524.663 180.28 524.741 180.076 524.897 179.908C525.065 179.74 525.359 179.656 525.779 179.656C526.199 179.656 526.487 179.74 526.643 179.908C526.811 180.076 526.895 180.28 526.895 180.52V180.916C526.895 181.156 526.811 181.36 526.643 181.528C526.487 181.696 526.199 181.78 525.779 181.78Z" fill="white" fill-opacity="0.5"/>
<path d="M489.458 257V255.452L495.308 249.098H489.656V247.712H497.162V249.26L491.312 255.614H497.342V257H489.458ZM501.529 252.374V250.664H506.857V252.374H501.529ZM511.134 257V255.524H514.698V245.714H514.572L511.53 248.738L510.486 247.712L513.744 244.436H516.444V255.524H519.63V257H511.134ZM525.779 257.216C524.999 257.216 524.327 257.072 523.763 256.784C523.199 256.484 522.731 256.058 522.359 255.506C521.987 254.954 521.711 254.276 521.531 253.472C521.363 252.668 521.279 251.75 521.279 250.718C521.279 249.698 521.363 248.786 521.531 247.982C521.711 247.166 521.987 246.482 522.359 245.93C522.731 245.378 523.199 244.958 523.763 244.67C524.327 244.37 524.999 244.22 525.779 244.22C526.559 244.22 527.231 244.37 527.795 244.67C528.359 244.958 528.827 245.378 529.199 245.93C529.571 246.482 529.841 247.166 530.009 247.982C530.189 248.786 530.279 249.698 530.279 250.718C530.279 251.75 530.189 252.668 530.009 253.472C529.841 254.276 529.571 254.954 529.199 255.506C528.827 256.058 528.359 256.484 527.795 256.784C527.231 257.072 526.559 257.216 525.779 257.216ZM525.779 255.74C526.259 255.74 526.667 255.65 527.003 255.47C527.351 255.278 527.633 255.014 527.849 254.678C528.065 254.33 528.221 253.91 528.317 253.418C528.425 252.926 528.479 252.38 528.479 251.78V249.656C528.479 249.056 528.425 248.51 528.317 248.018C528.221 247.526 528.065 247.112 527.849 246.776C527.633 246.428 527.351 246.164 527.003 245.984C526.667 245.792 526.259 245.696 525.779 245.696C525.287 245.696 524.867 245.792 524.519 245.984C524.183 246.164 523.907 246.428 523.691 246.776C523.475 247.112 523.319 247.526 523.223 248.018C523.127 248.51 523.079 249.056 523.079 249.656V251.78C523.079 252.38 523.127 252.926 523.223 253.418C523.319 253.91 523.475 254.33 523.691 254.678C523.907 255.014 524.183 255.278 524.519 255.47C524.867 255.65 525.287 255.74 525.779 255.74ZM525.779 251.78C525.359 251.78 525.065 251.696 524.897 251.528C524.741 251.36 524.663 251.156 524.663 250.916V250.52C524.663 250.28 524.741 250.076 524.897 249.908C525.065 249.74 525.359 249.656 525.779 249.656C526.199 249.656 526.487 249.74 526.643 249.908C526.811 250.076 526.895 250.28 526.895 250.52V250.916C526.895 251.156 526.811 251.36 526.643 251.528C526.487 251.696 526.199 251.78 525.779 251.78Z" fill="white" fill-opacity="0.5"/>
<line x1="336.5" y1="99.5" x2="475.5" y2="99.5" stroke="white" stroke-opacity="0.5" stroke-linecap="round" stroke-dasharray="2 8"/>
<line x1="336.5" y1="179.5" x2="475.5" y2="179.5" stroke="white" stroke-opacity="0.5" stroke-linecap="round" stroke-dasharray="2 8"/>
<line x1="336.5" y1="249.5" x2="475.5" y2="249.5" stroke="white" stroke-opacity="0.5" stroke-linecap="round" stroke-dasharray="2 8"/>
</svg>
