<svg width="45" height="44" viewBox="0 0 45 44" fill="none" xmlns="http://www.w3.org/2000/svg">
<path d="M2.31396 26.1921C1.44487 32.7834 1.0472 38.5297 1.12096 42.7767L43.8411 42.0866C43.7032 38.2356 43.3087 33.421 42.6609 28.0916C42.5807 27.438 42.5005 26.7886 42.414 26.1437C41.965 22.6993 41.4519 19.4103 40.9131 16.4223C39.7458 10.0048 38.4341 4.96947 37.2764 2.70982C36.6767 1.53574 36.3239 1.48283 36.2822 1.47995H36.247C34.9545 1.47995 32.8251 5.40979 31.7155 8.23516C31.6546 8.39166 31.5295 8.51321 31.3788 8.5658C31.2248 8.61839 31.0581 8.60107 30.9202 8.5132C30.8945 8.49556 28.8934 7.25702 25.789 6.65154C24.5704 6.41166 23.1882 6.26959 21.6841 6.33854C19.5707 6.42898 17.5727 6.97897 16.1328 7.49369C14.7698 7.97795 13.8976 8.42982 13.8815 8.43848C13.7404 8.51032 13.5769 8.51897 13.4357 8.459C13.2914 8.40063 13.176 8.27621 13.1182 8.12259C12.0567 5.24143 9.93053 1.18458 8.53549 1.18169L8.53505 1.18182C8.51914 1.1864 8.22472 1.27118 7.69206 2.30479C6.62093 4.39607 5.38624 8.82621 4.27022 14.3515H4.26699C3.53901 17.9479 2.86235 22.0108 2.31396 26.1921Z" fill="#FBB03B"/>
<path d="M43.3475 24.7529C43.139 23.2289 42.9049 21.6569 42.6547 20.0803C42.4751 18.9453 42.2859 17.8075 42.0839 16.6828C42.0807 16.6536 42.0743 16.6228 42.0679 16.5936C40.9903 10.5343 39.6562 4.8817 38.2516 2.14261C37.6262 0.924271 37.0201 0.339318 36.3466 0.301155C36.3146 0.298269 36.2857 0.298264 36.2568 0.298264C34.0408 0.298264 31.7638 5.20368 30.9332 7.184C30.0866 6.73631 28.3196 5.92751 25.9368 5.47276C25.7828 5.44197 25.6161 5.42015 25.4525 5.39386C25.0966 5.33517 24.7309 5.28546 24.3493 5.24602C23.4963 5.15686 22.5951 5.11453 21.6362 5.15526C19.5485 5.24762 17.5986 5.74759 16.117 6.25237C15.1645 6.57403 14.4045 6.8973 13.9299 7.11506C13.141 5.10555 10.8961 1.14441e-05 8.53574 1.14441e-05C7.97772 1.14441e-05 7.45177 0.446105 6.91941 1.3617C5.88035 3.16788 4.68735 7.13718 3.57773 12.2427C3.4238 12.9492 3.26989 13.6775 3.12237 14.426C3.05823 14.7451 2.99409 15.0726 2.92995 15.3987C2.32383 18.5329 1.75939 21.967 1.28155 25.5149C0.861438 28.6462 -0.132725 36.8173 0.0147963 43.1543C0.101385 43.1219 0.178365 43.0914 0.26816 43.0591C0.534339 42.9625 0.826161 42.8689 1.1212 42.7768C1.04744 38.5298 1.44511 32.7835 2.3142 26.1922C2.8626 22.0109 3.53925 17.948 4.26723 14.3516H4.27046C5.38649 8.8263 6.62118 4.39617 7.69231 2.30489C8.23108 1.25941 8.52611 1.18468 8.53574 1.18179C9.93077 1.18468 12.057 5.24153 13.1185 8.12269C13.1762 8.27631 13.2917 8.40074 13.436 8.4591C13.5771 8.51907 13.7407 8.51042 13.8818 8.43858C13.8978 8.42992 14.7701 7.97805 16.133 7.49379C17.573 6.97907 19.5709 6.42908 21.6843 6.33864C23.1884 6.26969 24.5706 6.41175 25.7893 6.65164C28.8936 7.25712 30.8948 8.49566 30.9204 8.5133C31.0583 8.60117 31.2251 8.61849 31.379 8.5659C31.5297 8.5133 31.6548 8.39176 31.7157 8.23526C32.8254 5.40989 34.9548 1.48005 36.2472 1.48005H36.2825C36.3242 1.48293 36.6769 1.53584 37.2767 2.70992C38.4344 4.96957 39.746 10.0049 40.9133 16.4224C41.4521 19.4104 41.9652 22.6994 42.4142 26.1438C42.5008 26.7887 42.581 27.4381 42.6611 28.0917C43.309 33.4211 43.7034 38.2357 43.8413 42.0867C44.1941 42.028 44.5629 41.9799 44.9445 41.9405C44.7906 37.6582 44.332 32.6036 43.7611 27.9384C43.6361 26.9102 43.4982 25.8426 43.3475 24.7529Z" fill="#100F0D"/>
<path d="M11.8737 8.41013C12.1994 7.93205 9.63459 4.42208 8.7215 4.05044C7.80258 3.68054 6.80515 9.1444 7.0436 9.60793C7.28496 10.0732 11.548 8.88704 11.8737 8.41013Z" fill="#FAD3A5"/>
<path d="M38.1302 9.08883C38.2744 8.55808 36.6207 2.78701 35.8046 3.34291C34.9916 3.90005 33.0127 7.84141 33.4146 8.28166C33.8196 8.72191 37.986 9.61989 38.1302 9.08883" fill="#FAD3A5"/>
<path d="M14.5583 20.5418C14.1277 20.552 13.7673 20.1308 13.7527 19.5996C13.738 19.0702 14.072 18.6329 14.5026 18.6229C14.9333 18.6126 15.2936 19.0351 15.3082 19.5648C15.3229 20.0941 14.986 20.5315 14.5583 20.5418ZM13.8699 18.3376C12.9061 18.3595 12.1444 19.2123 12.1737 20.2403C12.203 21.2686 13.0115 22.0845 13.9782 22.0628C14.945 22.0394 15.7037 21.188 15.6744 20.1601C15.6451 19.1303 14.8366 18.3156 13.8699 18.3376Z" fill="#100F0D"/>
<path d="M14.5028 18.6231C14.0725 18.6331 13.7358 19.0704 13.7505 19.6C13.7651 20.131 14.1251 20.5523 14.5555 20.5421C14.9858 20.5318 15.3224 20.0945 15.3078 19.5649C15.2931 19.0353 14.9331 18.6129 14.5028 18.6231" fill="white"/>
<path d="M31.1192 21.6648C32.0872 21.6426 32.8458 20.7917 32.8154 19.762C32.8063 19.4227 32.7062 19.1095 32.5484 18.8391C32.5818 18.9398 32.603 19.0482 32.606 19.1638C32.6212 19.6931 32.2844 20.1304 31.8566 20.1407C31.4257 20.151 31.0645 19.7298 31.0494 19.2002C31.0342 18.6694 31.371 18.2321 31.8019 18.2218C31.8838 18.2203 31.9628 18.2394 32.0386 18.267C31.7473 18.0552 31.3923 17.9308 31.016 17.9411C30.048 17.9629 29.2894 18.8142 29.3197 19.8439C29.347 20.8721 30.1542 21.6882 31.1192 21.6648" fill="#100F0D"/>
<path d="M31.0508 19.2004C31.0659 19.73 31.4268 20.151 31.8544 20.1407C32.2851 20.1307 32.6217 19.6933 32.6065 19.164C32.6035 19.0484 32.5823 18.9401 32.5489 18.8391C32.4579 18.5628 32.2699 18.3523 32.0394 18.2674C31.9636 18.2398 31.8848 18.2206 31.8029 18.2222C31.3722 18.2322 31.0356 18.6696 31.0508 19.2004" fill="white"/>
<path d="M16 8.23532C16.1062 9.14055 16.236 10.0413 16.4071 10.938C16.4927 11.3797 16.593 11.8418 16.9146 12.1826C17.2391 12.5234 17.8587 12.6901 18.254 12.4151C18.4487 12.2835 18.5579 12.0714 18.6257 11.8595C18.7349 11.5113 18.7496 11.1443 18.7378 10.7843C18.7172 10.1729 18.6198 9.56897 18.5225 8.96204C18.4428 8.48257 18.3661 8.00576 18.2894 7.526C17.4456 7.7352 16.6668 7.98954 16 8.23532" fill="#FAD3A5"/>
<path d="M23.0787 21.6438C23.9107 21.4655 24.2804 20.5369 23.8391 19.775C23.5558 19.2881 22.849 19.75 23.1353 20.2384C23.4216 20.7373 22.5031 20.9961 22.2944 20.3717C22.2884 20.2676 22.2705 20.1639 22.2347 20.0631C22.0707 19.6274 21.3759 19.6698 21.4206 20.2006C21.4236 20.2399 21.4355 20.2781 21.4415 20.3175H21.4385C21.4475 20.3395 21.4475 20.3586 21.4534 20.3789C21.4564 20.3994 21.4564 20.42 21.4624 20.4403C21.4862 20.9741 20.2725 21.116 20.5618 20.4111C20.7735 19.8919 20.0429 19.459 19.8312 19.9796C19.5598 20.6392 19.8699 21.625 20.5558 21.8415C21.024 21.9891 21.5846 21.7228 21.9395 21.2988C22.2407 21.5839 22.6433 21.7374 23.0787 21.6438" fill="#100F0D"/>
<path d="M21.2865 7.03996C21.0662 7.05306 20.8489 7.07359 20.6316 7.0986C20.5929 8.32416 20.5929 9.54675 20.6554 10.7723C20.6822 11.2242 20.7209 11.6951 21.0007 12.0827C21.2746 12.4688 21.8611 12.7245 22.2898 12.5126C22.5012 12.4102 22.6382 12.2185 22.7334 12.0181C22.8853 11.6892 22.9538 11.3308 22.9865 10.9726C23.046 10.3642 23.0312 9.75007 23.0133 9.13863C22.9954 8.42776 22.9776 7.71868 22.9567 7.00633C22.4208 6.99323 21.8611 6.99918 21.2865 7.03996" fill="#FAD3A5"/>
<path d="M24.9875 10.538C24.9665 10.9884 24.9635 11.4608 25.1979 11.8745C25.4322 12.2901 25.9941 12.6074 26.4449 12.4463C26.6642 12.3676 26.8175 12.1921 26.9286 12.0034C27.118 11.6948 27.2171 11.3466 27.2862 10.9929C27.4064 10.3962 27.4455 9.78324 27.4906 9.17358C27.5236 8.70695 27.5537 8.23911 27.5897 7.77097C26.9076 7.56785 26.1324 7.37615 25.273 7.23703C25.1378 8.32955 25.0356 9.43228 24.9875 10.538" fill="#FAD3A5"/>
<path d="M10.4811 22.0617C8.57446 22.0617 7.02686 23.2666 7.02686 24.7527C7.02686 26.2384 8.57446 27.4436 10.4811 27.4436C12.3877 27.4436 13.9353 26.2384 13.9353 24.7527C13.9353 23.2666 12.3877 22.0617 10.4811 22.0617Z" fill="#FAD3A5"/>
<path d="M33.402 22.0617C31.4949 22.0617 29.9478 23.2669 29.9478 24.7528C29.9478 26.2387 31.4949 27.4438 33.402 27.4438C35.3091 27.4438 36.8563 26.2387 36.8563 24.7528C36.8563 23.2669 35.3091 22.0617 33.402 22.0617Z" fill="#FAD3A5"/>
</svg>
